<svg id="Layer_1" data-name="Layer 1" xmlns="http://www.w3.org/2000/svg" viewBox="0 0 96 96"><defs><style>.cls-1{fill:#f0f0f5;}.cls-2{fill:#02a45e;}.cls-3{fill:#03a65f;}.cls-4{fill:#03a660;}.cls-5{fill:#03cc77;}.cls-6{fill:#04cc78;}.cls-7{fill:#09bc71;}.cls-8{fill:#08bd72;}.cls-9{fill:#05bb6f;}.cls-10{fill:#079457;}.cls-11{fill:#009050;}.cls-12{fill:#059354;}.cls-13{fill:#019252;}</style></defs><rect class="cls-1" width="96" height="96"/><g id="Layer_2" data-name="Layer 2"><g id="Layer_1-2" data-name="Layer 1-2"><path class="cls-2" d="M19.21,71H36.93a5.93,5.93,0,0,1,1,4V92h4.92v1h-5.9c0-1.35-1-1-1.73-1h-17c-2.18.27-3-1.41-3.94-2.87-1-1.67-2-3.42-2.95-5.13h1.23a41.1,41.1,0,0,0,3.23-5.11C16.94,76.24,18.91,74,19.21,71Z"/><path class="cls-3" d="M32,35c-.5,0-1.09.19-1.45,0-3.42-2-6.79-4.14-10.56-6.46.32-.91.59-1.91,1-2.83,2.17-4.59,4.33-9.15,6.57-13.66C29.62,7.84,30.29,7,33,5H44.8c-.14,2.57,2,4,3,6H46.49Q40,23,33.52,35Z"/><path class="cls-4" d="M60.55,93,51.48,82.1c2.68-3.67,6.29-6.47,9.43-10.13h14.4c-.25,2.21.71,3.93,2,5.58,1.72,2.17,2.1,4.19,1.19,7.26S75.6,89.53,74.33,92H63.74c-.42,0-.82.63-1.22,1Z"/><path class="cls-5" d="M47.76,11c-1-2-3.1-3.43-3-6H60.55c.11.61,0,1.51.36,1.79,2.35,1.8,3.16,4.6,4.53,7,1.72,3,3.19,6.23,5,9.88-.88,2.32-2.06,5.13-3,8-.52,1.58-1.26,2.52-3,2.31l-6.74-2.13c0-3.25-1.43-6.08-3.39-8.75-1.24-1.55-1.77-3.54-2.76-5.24a9.15,9.15,0,0,0-2-1.86C49.89,14,48.25,12.7,47.76,11Z"/><path class="cls-6" d="M.51,59C3.59,54.64,6.26,50,9.17,45.6c.39-.58.23-1.53.38-2.69,3.3.65,6.31-1.49,9.66-.94a41.1,41.1,0,0,1,1,4.56,44.11,44.11,0,0,1,0,4.6l1.19,2.33c-.85.6-1.46,1.38-2.13,1.44-1.28.12-.81,1.16-1.2,1.72A172.19,172.19,0,0,0,8.33,73.37c-.46.87-1.1,1.6-.93,2.6-.32-.26-.79-.46-1-.8C4.45,71.42,3.85,67,.51,64Z"/><path class="cls-7" d="M76.3,42c2.34-2.62,3.06-2.92,6.56-2.77L95,57v6c-2.38,2.77-3.56,6.18-4.92,9.5S87.54,79.2,85.16,82c-2.24-.91-2.61-3-3-5l6.89-14V57.5L78.94,42Z"/><path class="cls-8" d="M64.49,34c1.73.21,2.47-.73,3-2.31,1-2.88,2.12-5.69,3-8-1.76-3.69-3.23-6.85-4.92-9.89-1.37-2.41-2.18-5.21-4.53-7-.39-.29-.28-1.19-.39-1.8h3.94C67.64,7.41,67.66,7.4,70,12.05c1.63,3.3,3.22,6.63,4.76,9.83l1.4.29c.07.47.25.83.15,1.08-1.28,3.12-3.09,6.12-3.74,9.36a8,8,0,0,1-2.68,4.32C68.47,35.19,65.55,36.32,64.49,34Z"/><path class="cls-5" d="M76.3,42h2.64L89.09,57.5V63L82.2,77l-3.93-5L65.47,50.85V48.51a4.93,4.93,0,0,1,.88-1C69.58,45.47,72.45,42.82,76.3,42Z"/><path class="cls-9" d="M10.35,81c-2.23-.91-2.61-3-2.95-5-.17-1,.47-1.73.93-2.6a172.19,172.19,0,0,1,9.73-16.75c.39-.56-.08-1.6,1.2-1.72.67-.06,1.28-.84,2.13-1.44L20.2,51.13a44.11,44.11,0,0,0,0-4.6,41.1,41.1,0,0,0-1-4.56c3.58-1.73,4.06-1.33,5,2.36a28.93,28.93,0,0,1,1,7.53,15.76,15.76,0,0,0,.9,3.56l-2.74,2.31c-2,3.37-4.2,7.2-6.38,11.06A10.32,10.32,0,0,0,16.26,71,52.62,52.62,0,0,0,10.35,81Z"/><path class="cls-10" d="M47.76,11c.49,1.73,2.13,3,2,5l-12,22.19C35.21,37.61,33,37.44,32,35h1.51Q40,23,46.49,11Z"/><path class="cls-11" d="M42.83,92H37.91V75a5.93,5.93,0,0,0-1-4c1.57,0,3.15-.07,4.71,0,.42,0,.8.62,1.19,1l1,1V91Z"/><path class="cls-12" d="M78.27,72l3.93,5c.35,2,.72,4.09,3,5a17.45,17.45,0,0,1-1.38,3.82C82.32,88,80.59,90.06,79.13,92h-4.8c1.27-2.44,3.33-4.19,4.19-7.16s.53-5.09-1.19-7.26c-1.31-1.65-2.27-3.37-2-5.58Z"/><path class="cls-13" d="M10.35,81a52.62,52.62,0,0,1,5.91-10h2.95c-.3,3-2.27,5.27-3.41,7.89A41.1,41.1,0,0,1,12.57,84H11.34Z"/><path class="cls-2" d="M43.82,73l-1-1Z"/><path class="cls-2" d="M42.83,92l1-1Z"/></g></g><rect class="cls-1" x="37" y="92" width="8" height="2"/></svg>